<?xml version="1.0" encoding="UTF-8" standalone="no"?>
<svg width="386px" height="313px" viewBox="0 0 386 313" version="1.1" xmlns="http://www.w3.org/2000/svg" xmlns:xlink="http://www.w3.org/1999/xlink" xmlns:sketch="http://www.bohemiancoding.com/sketch/ns">
    <!-- Generator: Sketch 3.3.3 (12081) - http://www.bohemiancoding.com/sketch -->
    <title>Device</title>
    <desc>Created with Sketch.</desc>
    <defs></defs>
    <g id="Page-1" stroke="none" stroke-width="1" fill="none" fill-rule="evenodd" sketch:type="MSPage">
        <g id="LandingPage" sketch:type="MSArtboardGroup" transform="translate(-207.000000, -569.000000)">
            <g id="Device" sketch:type="MSLayerGroup" transform="translate(208.000000, 570.000000)">
                <path d="M190,0.5 L190,269.5" id="Line-Copy-10" stroke="#E3EEFA" stroke-width="2" stroke-linecap="square" sketch:type="MSShapeGroup"></path>
                <g id="Grid" transform="translate(0.000000, 135.000000)" stroke="#E4EFFB" stroke-width="2" sketch:type="MSShapeGroup" stroke-linecap="square">
                    <path d="M255.479675,0.196428571 L0.806133317,96.3385331" id="Line"></path>
                    <path d="M316.878049,13.5535714 L62.2045073,109.695676" id="Line-Copy-3"></path>
                    <path d="M316.878049,13.5535714 L62.2045073,109.695676" id="Line-Copy-4" transform="translate(189.398374, 61.678571) scale(1, -1) translate(-189.398374, -61.678571) "></path>
                    <path d="M383.479675,0.196428571 L128.806133,96.3385331" id="Line-Copy-6" transform="translate(256.000000, 48.321429) scale(1, -1) translate(-256.000000, -48.321429) "></path>
                </g>
                <path d="M84,32.5 L84,301.5" id="Line" stroke="#E3EEFA" stroke-width="2" stroke-linecap="square" sketch:type="MSShapeGroup"></path>
                <path d="M300,41.5 L300,310.5" id="Line-Copy-11" stroke="#E3EEFA" stroke-width="2" stroke-linecap="square" sketch:type="MSShapeGroup"></path>
                <g id="Grid-Copy" transform="translate(0.000000, 88.000000)" stroke="#E4EFFB" stroke-width="2" sketch:type="MSShapeGroup" stroke-linecap="square">
                    <path d="M255.479675,0.196428571 L0.806133317,96.3385331" id="Line"></path>
                    <path d="M316.878049,13.5535714 L62.2045073,109.695676" id="Line-Copy-3"></path>
                    <path d="M316.878049,13.5535714 L62.2045073,109.695676" id="Line-Copy-4" transform="translate(189.398374, 61.678571) scale(1, -1) translate(-189.398374, -61.678571) "></path>
                    <path d="M383.479675,0.196428571 L128.806133,96.3385331" id="Line-Copy-6" transform="translate(256.000000, 48.321429) scale(1, -1) translate(-256.000000, -48.321429) "></path>
                </g>
                <g id="DeviceLying" transform="translate(84.000000, 88.000000)" sketch:type="MSShapeGroup">
                    <ellipse id="Oval-4-Copy" stroke="#B0CDED" stroke-width="3" cx="108" cy="94.6666667" rx="108" ry="47.3333333"></ellipse>
                    <ellipse id="Oval-4" stroke="#386499" stroke-width="3" cx="108" cy="47.3333333" rx="108" ry="47.3333333"></ellipse>
                    <path d="M182.851983,104.502135 C185.320673,104.502135 187,102.300391 187,99.5844009 C187,96.8684113 185.284857,94.6666667 182.851983,94.6666667 C180.419108,94.6666667 178.382022,96.8684113 178.382022,99.5844009 C178.382022,102.300391 180.383292,104.502135 182.851983,104.502135 Z" id="Oval-6" stroke="#B0CCEC" stroke-width="1.5"></path>
                </g>
            </g>
        </g>
    </g>
</svg>