<?xml version="1.0" encoding="UTF-8" standalone="no"?>
<svg width="156px" height="156px" viewBox="0 0 156 156" version="1.1" xmlns="http://www.w3.org/2000/svg" xmlns:xlink="http://www.w3.org/1999/xlink" xmlns:sketch="http://www.bohemiancoding.com/sketch/ns">
    <!-- Generator: Sketch 3.3.3 (12081) - http://www.bohemiancoding.com/sketch -->
    <title>World</title>
    <desc>Created with Sketch.</desc>
    <defs></defs>
    <g id="Page-1" stroke="none" stroke-width="1" fill="none" fill-rule="evenodd" sketch:type="MSPage">
        <g id="LandingPage" sketch:type="MSArtboardGroup" transform="translate(-322.000000, -1123.000000)" stroke="#386499" stroke-width="3">
            <g id="World" sketch:type="MSLayerGroup" transform="translate(324.000000, 1125.000000)">
                <path d="M76,152 C117.973641,152 152,117.973641 152,76 C152,34.026359 117.973641,0 76,0 C34.026359,0 0,34.026359 0,76 C0,117.973641 34.026359,152 76,152 Z" id="Oval-2" sketch:type="MSShapeGroup"></path>
                <path d="M88.0125925,13.6429677 C85.9949026,19.5640388 70.1266033,43.0933368 73.6682914,45.691315 C74.6159165,46.3864381 76.2195507,45.0343411 77.194012,45.691315 C87.9197926,52.9225493 79.342772,52.300155 86.0460351,52.300155" id="Path-14" sketch:type="MSShapeGroup"></path>
                <path d="M84.7584681,53.5877219 C80.8282613,62.2126146 59.185904,81.206288 77.5863175,86.1993798 C85.235205,88.2749635 94.7900059,82.6412052 101.345952,87.0946412 C105.910357,90.1952288 97.0640431,119.515952 96.8646156,120.214285 C96.6648148,120.913924 96.4006916,118.591983 96.8646156,118.031456 C97.8951564,116.786326 99.9289401,116.633957 100.898322,115.340642 C101.43627,114.622931 100.317544,113.333345 100.898322,112.649828 C103.029111,110.142107 106.294318,108.798577 108.518103,106.372939 C109.646959,105.141617 109.717537,103.19585 110.761286,101.891603 C112.741956,99.4165978 115.010837,97.1477982 117.485806,95.1670828 C119.527256,93.5333117 122.483306,93.091541 124.210326,91.1283472 C125.792644,89.3296439 126.470826,86.8208523 126.901139,84.4641821 C127.384474,81.8171334 127.553566,79.0022613 126.901139,76.3917406 C126.172159,73.4749082 123.497339,71.2641489 122.867433,68.3243286 C122.11611,64.8178418 123.985668,60.9733726 122.867433,57.5661028 C122.500439,56.4478684 120.058287,58.4958455 119.336683,57.5661028 L117.541131,53.1400912 C116.926968,52.3487795 115.20129,52.7322189 114.855347,51.7921695 C113.444786,47.9591861 109.171864,41.9476905 112.612164,39.7463767 C118.527758,35.9612178 126.671122,40.1747665 133.680984,39.7463767 C134.109374,39.7201968 133.680984,38.8879987 133.680984,38.4588097" id="Path-15" sketch:type="MSShapeGroup"></path>
                <path d="M25.2487309,32.2976005 C25.2487309,41.7686442 23.8111772,60.7439662 27.9395448,71.1861474 C31.6345474,80.5321872 34.2319772,71.4178179 40.0406627,77.9106673 C59.0774555,99.1896689 51.9213305,107.578661 32.0889306,118.534412" id="Path-16" sketch:type="MSShapeGroup"></path>
            </g>
        </g>
    </g>
</svg>